<svg xmlns="http://www.w3.org/2000/svg" viewBox="0 0 64 64" role="img" aria-labelledby="title">
  <title id="title">Exile Path Путеводитель</title>
  <defs>
    <linearGradient id="bg" x1="8" y1="6" x2="57" y2="60" gradientUnits="userSpaceOnUse">
      <stop stop-color="#ff8662"/>
      <stop offset="1" stop-color="#d94d35"/>
    </linearGradient>
  </defs>
  <rect x="3" y="3" width="58" height="58" rx="15" fill="#17191f"/>
  <rect x="5" y="5" width="54" height="54" rx="13" fill="url(#bg)"/>
  <path d="M41 5h5c7.2 0 13 5.8 13 13v28c0 7.2-5.8 13-13 13H31z" fill="#b9392f" opacity=".28"/>
  <path d="M15 17h17v7H23v5h8v7h-8v5h9v7H15z" fill="#fff7ef"/>
  <path d="M35 17h9c7.4 0 12 4.1 12 10.8S51.4 39 44 39h-2v9h-7zm7 7v8h2c3.3 0 5-1.2 5-4.1S47.3 24 44 24z" fill="#fff7ef"/>
  <path d="M52 8l1.5 3.5L57 13l-3.5 1.5L52 18l-1.5-3.5L47 13l3.5-1.5z" fill="#ffd36e"/>
</svg>
